<svg width="800" height="800" viewBox="0 0 800 800" fill="none" xmlns="http://www.w3.org/2000/svg">
<g clip-path="url(#clip0_6303_212)">
<path d="M635.346 746.021V53.9648C635.346 24.1628 611.196 0 581.394 0H218.606C188.79 0 164.654 24.1628 164.654 53.9648V746.021C164.654 775.836 188.778 800 218.606 800H581.394C611.183 799.986 635.346 775.836 635.346 746.021ZM399.107 767.044C380.327 767.044 365.13 751.861 365.13 733.093C365.13 714.341 380.327 699.143 399.107 699.143C417.822 699.143 433.056 714.339 433.056 733.093C433.056 751.86 417.822 767.044 399.107 767.044ZM562.506 636.668C562.506 644.871 555.862 651.515 547.645 651.515H252.314C244.099 651.515 237.454 644.871 237.454 636.668V103.889C237.454 95.6867 244.099 89.055 252.314 89.055H547.645C555.862 89.055 562.506 95.6867 562.506 103.889V636.668Z" fill="#36373B"/>
<path d="M298.346 343.296C292.882 337.765 288.465 339.578 288.465 347.351V452.623C288.465 460.382 292.868 462.181 298.292 456.624L353.989 399.691L298.346 343.296Z" fill="#36373B"/>
<path d="M433.755 412.914L421.404 425.386C415.619 431.185 407.913 433.762 400.396 433.776C392.892 433.762 385.132 431.172 379.267 425.279L366.701 412.553L310.843 469.646C305.42 475.204 307.312 479.7 315.071 479.7H484.928C492.687 479.7 494.579 475.204 489.169 469.646L433.755 412.914Z" fill="#36373B"/>
<path d="M492.701 388.119L491.788 389.367C487.022 395.798 478.338 403.007 471.142 406.483L458.685 412.524L501.723 456.596C507.146 462.139 511.549 460.355 511.549 452.595V362.64L501.334 376.454L492.701 388.119Z" fill="#36373B"/>
<path d="M521.039 293.814C512.099 287.196 501.695 286.094 497.815 291.345C493.935 296.593 490.78 300.848 490.78 300.848L523.172 324.811L530.207 315.307C534.087 310.044 529.992 300.419 521.039 293.814Z" fill="#36373B"/>
<path d="M448.604 357.875C445.153 362.533 441.796 371.004 441.113 376.75L438.603 397.96C437.918 403.719 441.596 406.337 446.818 403.8L465.275 394.845C470.498 392.321 477.531 386.481 480.982 381.824L519.522 329.711L487.143 305.762L448.604 357.875ZM445.448 395.999L448.483 375.461C448.764 375.77 448.98 376.132 449.328 376.387C450.657 377.367 452.202 377.704 453.718 377.637C454.095 379.114 454.859 380.496 456.188 381.476C457.222 382.241 458.404 382.55 459.598 382.671C460.055 383.784 460.699 384.805 461.734 385.584C462.742 386.336 463.895 386.644 465.063 386.766L445.448 395.999Z" fill="#36373B"/>
<path d="M392.127 412.566C393.98 414.485 397.081 415.679 400.397 415.679C403.713 415.708 406.828 414.444 408.586 412.633L425.352 395.758L427.78 375.151C428.746 367.044 432.962 356.398 437.809 349.847L459.691 320.286H315.127C307.354 320.286 305.488 324.77 310.938 330.287L392.127 412.566Z" fill="#36373B"/>
</g>
<defs>
<clipPath id="clip0_6303_212">
<rect width="800" height="800" fill="white"/>
</clipPath>
</defs>
</svg>
