<svg width="24" height="24" viewBox="0 0 24 24" fill="none" xmlns="http://www.w3.org/2000/svg">
<path d="M6.93994 4.9999C6.93968 5.53033 6.72871 6.03894 6.35345 6.41382C5.97819 6.78871 5.46937 6.99917 4.93894 6.9989C4.40851 6.99864 3.89991 6.78767 3.52502 6.41241C3.15014 6.03715 2.93968 5.52833 2.93994 4.9979C2.94021 4.46747 3.15117 3.95887 3.52644 3.58398C3.9017 3.2091 4.41051 2.99864 4.94094 2.9989C5.47137 2.99917 5.97998 3.21013 6.35486 3.5854C6.72975 3.96066 6.94021 4.46947 6.93994 4.9999ZM6.99994 8.4799H2.99994V20.9999H6.99994V8.4799ZM13.3199 8.4799H9.33994V20.9999H13.2799V14.4299C13.2799 10.7699 18.0499 10.4299 18.0499 14.4299V20.9999H21.9999V13.0699C21.9999 6.8999 14.9399 7.1299 13.2799 10.1599L13.3199 8.4799Z" fill="#36373B"/>
</svg>
