<svg width="800" height="800" viewBox="0 0 800 800" fill="none" xmlns="http://www.w3.org/2000/svg">
<g clip-path="url(#clip0_6303_202)">
<path d="M218.579 800H581.38C611.183 800 635.347 775.849 635.347 746.033V53.9666C635.348 24.1636 611.183 0 581.381 0H218.579C188.764 0 164.652 24.1636 164.652 53.9666V746.032C164.639 775.849 188.764 800 218.579 800ZM399.087 767.055C380.306 767.055 365.109 751.874 365.109 733.104C365.109 714.351 380.306 699.152 399.087 699.152C417.801 699.152 433.039 714.349 433.039 733.104C433.039 751.872 417.787 767.055 399.087 767.055ZM237.442 103.88C237.442 95.6773 244.086 89.0327 252.302 89.0327H547.643C555.848 89.0327 562.505 95.6773 562.505 103.88V636.677C562.505 644.878 555.848 651.537 547.643 651.537H252.302C244.1 651.537 237.442 644.878 237.442 636.677V103.88Z" fill="#36373B"/>
<path d="M335.803 415.667C335.924 415.867 336.032 416.096 336.153 416.297C351.537 443.402 369.258 466.599 387.045 484.213L405.611 500.537C411.853 505.316 417.988 509.356 423.936 512.485C443.321 524.434 468.464 525.79 489.73 513.841C499.155 508.552 506.738 501.236 512.242 492.764C515.291 489.005 515.907 483.622 513.382 479.125L468.236 398.751C465.862 394.535 461.403 392.334 456.892 392.576L456.864 392.535C446.488 392.723 435.962 395.407 426.257 400.871C419.705 404.535 414.04 409.181 409.341 414.497C402.871 405.234 396.589 395.327 390.628 384.856C384.788 374.304 365.738 339.964 361.214 329.613C368.208 328.378 375.108 325.961 381.66 322.283C391.393 316.819 399.152 309.236 404.696 300.442L404.682 300.429C407.22 296.71 407.636 291.703 405.287 287.515L360.127 207.143C357.59 202.645 352.663 200.376 347.884 201.008C337.788 201.317 327.586 203.988 318.162 209.264C296.898 221.225 284.99 243.402 285.098 266.184C283.083 298.403 309.611 368.559 335.44 415.01C335.562 415.236 335.67 415.439 335.803 415.667Z" fill="#36373B"/>
</g>
<defs>
<clipPath id="clip0_6303_202">
<rect width="800" height="800" fill="white"/>
</clipPath>
</defs>
</svg>
