<svg width="800" height="800" viewBox="0 0 800 800" fill="none" xmlns="http://www.w3.org/2000/svg">
<g clip-path="url(#clip0_6303_208)">
<path d="M721.96 636.972C913.794 376.731 730.833 2.74972 403.177 0.156624C403.164 0.156624 403.153 0.15397 403.14 0.15397C403.105 0.15397 403.068 0.15397 403.036 0.151315C402.986 0.151315 402.933 0.148661 402.885 0.148661C402.848 0.148661 402.808 0.148661 402.771 0.148661C400.764 0.0982327 398.731 0.0982327 396.942 0.148661C396.924 0.148661 396.908 0.148661 396.889 0.148661C396.865 0.148661 396.842 0.151315 396.82 0.151315C396.802 0.151315 396.781 0.151315 396.762 0.151315C396.754 0.151315 396.749 0.151315 396.741 0.151315C174.711 1.83404 0 182.565 0 400.005C0 620.832 179.024 799.889 399.883 799.889C470.921 799.889 541.919 781.118 605.189 743.178L655.949 793.941C663.861 801.845 676.721 801.884 684.664 793.938L767.423 711.15C775.354 703.217 775.351 690.363 767.423 682.438L721.96 636.972ZM277.612 62.4678C244.547 99.8142 217.223 152.61 198.787 217.268H90.5858C133.347 145.192 200.162 90.7371 277.612 62.4678ZM69.8543 257.876H188.725C180.473 296.842 175.728 337.644 174.576 379.701H41.1657C43.4881 337.405 53.1199 296.563 69.8543 257.876ZM41.1657 420.309H174.579C175.728 462.37 180.476 503.172 188.728 542.134H69.8543C53.1199 503.453 43.4881 462.611 41.1657 420.309ZM90.5858 582.743H198.784C217.22 647.395 244.539 700.188 277.586 737.532C200.151 709.263 133.349 654.811 90.5858 582.743ZM379.579 756.987C322.94 744.295 271.078 679.149 241.163 582.743H379.579V756.987ZM379.579 542.134H230.331C221.52 503.395 216.421 462.571 215.195 420.309H379.579C379.579 481.724 379.579 514.088 379.579 542.134ZM379.579 379.701H215.195C216.419 337.439 221.517 296.619 230.329 257.876H379.582L379.579 379.701ZM379.579 217.265H241.166C271.062 120.915 322.889 55.7821 379.582 43.0369L379.579 217.265ZM729.909 542.134H709.796L727.3 524.63C738.347 513.579 733.264 494.694 718.197 490.66L622.52 465.021C623.861 450.307 624.768 435.374 625.185 420.312H758.601C756.278 462.603 746.649 503.442 729.909 542.134ZM758.601 379.701H625.19C624.041 337.641 619.29 296.839 611.041 257.876H729.909C746.646 296.558 756.278 337.402 758.601 379.701ZM709.181 217.268H600.982C582.546 152.616 555.227 99.8222 522.181 62.4785C599.62 90.745 666.425 145.2 709.181 217.268ZM420.187 43.021C476.827 55.7131 528.689 120.859 558.603 217.265H420.187V43.021ZM420.187 257.876H569.438C578.249 296.613 583.351 337.437 584.574 379.701H420.19V257.876H420.187ZM584.534 420.309C584.2 431.751 583.611 443.124 582.714 454.351L455.689 420.309H584.534ZM420.187 756.971V582.743H420.763L462.21 737.426C448.608 747.156 434.488 753.738 420.187 756.971ZM521.368 738.18C530.151 728.362 538.546 717.443 546.49 705.468L556.987 694.97L575.51 713.494C558.128 723.256 540.016 731.486 521.368 738.18ZM670.305 750.867L571.343 651.902C563.418 643.976 550.561 643.968 542.628 651.899C513.703 680.824 521.289 673.238 494.294 700.236L428.601 455.092C530.756 482.472 645.771 513.292 673.721 520.782L625.387 569.111C617.456 577.044 617.456 589.898 625.387 597.826L724.357 696.797L670.305 750.867ZM709.26 582.743C704.164 591.355 698.718 599.761 692.913 607.925L668.461 583.473L669.188 582.743H709.26Z" fill="#36373B"/>
</g>
<defs>
<clipPath id="clip0_6303_208">
<rect width="800" height="800" fill="white"/>
</clipPath>
</defs>
</svg>
